<?xml version="1.0" encoding="UTF-8"?>
<svg xmlns="http://www.w3.org/2000/svg" width="680" height="820" viewBox="0 0 680 820">
<style>
.ts { font-family: 'Segoe UI', Arial, sans-serif; font-size: 12px; font-weight: 400; fill: #4a4a4a; }
.th { font-family: 'Segoe UI', Arial, sans-serif; font-size: 14px; font-weight: 500; fill: #1a1a1a; }
.title-main { font-family: 'Segoe UI', Arial, sans-serif; font-size: 16px; font-weight: 600; fill: #1a1a1a; }
.code { font-family: 'Consolas', 'Courier New', monospace; font-size: 11px; fill: #1a1a1a; }
</style>
<defs>
<marker id="arrow" viewBox="0 0 10 10" refX="8" refY="5" markerWidth="6" markerHeight="6" orient="auto-start-reverse"><path d="M2 1L8 5L2 9" fill="none" stroke="context-stroke" stroke-width="1.5" stroke-linecap="round" stroke-linejoin="round"/></marker>
</defs>

<text class="title-main" x="340" y="30" text-anchor="middle">C4 Nivel 4 — Codigo del backend</text>
<text class="ts" x="340" y="50" text-anchor="middle">Caso: modulo Citas con validacion de disponibilidad horaria</text>

<!-- CitasController -->
<rect x="40" y="80" width="600" height="130" rx="10" fill="#EEEDFE" stroke="#534AB7" stroke-width="1"/>
<text class="th" x="60" y="105" fill="#3C3489">CitasController</text>
<text class="ts" x="60" y="123" fill="#534AB7">@Controller('citas') · controller/citas.controller.ts</text>
<line x1="60" y1="135" x2="620" y2="135" stroke="#534AB7" stroke-width="0.3" opacity="0.4"/>
<text class="code" x="60" y="155">+ findAll() · @Get()</text>
<text class="code" x="60" y="172">+ findOne(id) · @Get(':id')</text>
<text class="code" x="60" y="189">+ create(dto: CreateCitaDto) · @Post()</text>
<text class="code" x="60" y="206">+ update(id, dto) / remove(id) · @Put @Delete</text>

<line x1="340" y1="210" x2="340" y2="245" stroke="#5F5E5A" stroke-width="1.5" marker-end="url(#arrow)"/>
<text class="ts" x="375" y="232">inyecta</text>

<!-- CitasService -->
<rect x="40" y="250" width="600" height="160" rx="10" fill="#E1F5EE" stroke="#0F6E56" stroke-width="1"/>
<text class="th" x="60" y="275" fill="#085041">CitasService</text>
<text class="ts" x="60" y="293" fill="#0F6E56">@Injectable() · service/citas.service.ts · reglas de negocio</text>
<line x1="60" y1="305" x2="620" y2="305" stroke="#0F6E56" stroke-width="0.3" opacity="0.4"/>
<text class="code" x="60" y="325">+ create(dto) -- llama assertNoConflict antes de persistir</text>
<text class="code" x="60" y="342">+ update(id, dto) -- revalida si cambia fecha/hora/vet/mascota</text>
<text class="code" x="60" y="359">+ findOne(id) -- lanza NotFoundException si no existe</text>
<text class="code" x="60" y="380">— assertNoConflict() · metodo privado</text>
<text class="code" x="80" y="397">lanza ConflictException con mensaje legible</text>

<line x1="340" y1="410" x2="340" y2="445" stroke="#5F5E5A" stroke-width="1.5" marker-end="url(#arrow)"/>
<text class="ts" x="375" y="432">inyecta</text>

<!-- CitasRepository -->
<rect x="40" y="450" width="600" height="140" rx="10" fill="#FAECE7" stroke="#993C1D" stroke-width="1"/>
<text class="th" x="60" y="475" fill="#712B13">CitasRepository</text>
<text class="ts" x="60" y="493" fill="#993C1D">@Injectable() · repository/citas.repository.ts · acceso a datos</text>
<line x1="60" y1="505" x2="620" y2="505" stroke="#993C1D" stroke-width="0.3" opacity="0.4"/>
<text class="code" x="60" y="525">+ findConflict(fecha, hora, vet, mascota, excludeId?)</text>
<text class="code" x="60" y="542">+ create(dto) -- prisma.cita.create con includes</text>
<text class="code" x="60" y="559">+ findAll / findOne / update / remove</text>
<text class="code" x="60" y="576">+ findByMascota(mascotaId)</text>

<line x1="340" y1="590" x2="340" y2="625" stroke="#5F5E5A" stroke-width="1.5" marker-end="url(#arrow)"/>
<text class="ts" x="375" y="612">usa</text>

<!-- PrismaService -->
<rect x="40" y="630" width="600" height="110" rx="10" fill="#FAEEDA" stroke="#854F0B" stroke-width="1"/>
<text class="th" x="60" y="655" fill="#633806">PrismaService extends PrismaClient</text>
<text class="ts" x="60" y="673" fill="#854F0B">@Global @Injectable() · prisma/prisma.service.ts</text>
<line x1="60" y1="685" x2="620" y2="685" stroke="#854F0B" stroke-width="0.3" opacity="0.4"/>
<text class="code" x="60" y="705">+ onModuleInit() -- $connect()</text>
<text class="code" x="60" y="722">+ onModuleDestroy() -- $disconnect()</text>

<!-- DTOs note -->
<rect x="40" y="760" width="600" height="50" rx="6" fill="#F1EFE8" stroke="#5F5E5A" stroke-width="0.5"/>
<text class="th" x="340" y="780" text-anchor="middle" fill="#2C2C2A">DTOs: CreateCitaDto, UpdateCitaDto (class-validator)</text>
<text class="ts" x="340" y="800" text-anchor="middle" fill="#444441">Validados por ValidationPipe global antes de llegar al Controller</text>
</svg>
