<?xml version="1.0" encoding="UTF-8"?>
<svg xmlns="http://www.w3.org/2000/svg" width="680" height="580" viewBox="0 0 680 580">
<style>
.ts { font-family: 'Segoe UI', Arial, sans-serif; font-size: 12px; font-weight: 400; fill: #4a4a4a; }
.th { font-family: 'Segoe UI', Arial, sans-serif; font-size: 14px; font-weight: 500; fill: #1a1a1a; }
.title-main { font-family: 'Segoe UI', Arial, sans-serif; font-size: 16px; font-weight: 600; fill: #1a1a1a; }
</style>
<defs>
<marker id="arrow" viewBox="0 0 10 10" refX="8" refY="5" markerWidth="6" markerHeight="6" orient="auto-start-reverse"><path d="M2 1L8 5L2 9" fill="none" stroke="context-stroke" stroke-width="1.5" stroke-linecap="round" stroke-linejoin="round"/></marker>
</defs>

<text class="title-main" x="340" y="30" text-anchor="middle">C4 Nivel 2 — Contenedores</text>
<text class="ts" x="340" y="50" text-anchor="middle">Despliegue Docker Compose</text>

<ellipse cx="100" cy="130" rx="60" ry="35" fill="#E6F1FB" stroke="#185FA5" stroke-width="1"/>
<text class="th" x="100" y="128" text-anchor="middle" fill="#0C447C">Usuario</text>
<text class="ts" x="100" y="146" text-anchor="middle" fill="#185FA5">Navegador web</text>

<rect x="200" y="80" width="460" height="450" rx="16" fill="none" stroke="#888780" stroke-width="1" stroke-dasharray="6 4"/>
<text class="ts" x="220" y="105" fill="#5F5E5A">Docker Compose · red interna</text>

<rect x="230" y="135" width="180" height="100" rx="8" fill="#EEEDFE" stroke="#534AB7" stroke-width="1"/>
<text class="th" x="320" y="160" text-anchor="middle" fill="#3C3489">Frontend</text>
<text class="ts" x="320" y="180" text-anchor="middle" fill="#534AB7">Next.js 15 + React 19</text>
<text class="ts" x="320" y="198" text-anchor="middle" fill="#534AB7">[Tailwind CSS]</text>
<text class="ts" x="320" y="220" text-anchor="middle" fill="#534AB7">Puerto: 3000</text>

<rect x="450" y="135" width="180" height="100" rx="8" fill="#E1F5EE" stroke="#0F6E56" stroke-width="1"/>
<text class="th" x="540" y="160" text-anchor="middle" fill="#085041">Backend API</text>
<text class="ts" x="540" y="180" text-anchor="middle" fill="#0F6E56">NestJS 10 + TypeScript</text>
<text class="ts" x="540" y="198" text-anchor="middle" fill="#0F6E56">[Prisma 5 ORM]</text>
<text class="ts" x="540" y="220" text-anchor="middle" fill="#0F6E56">Puerto: 3001</text>

<rect x="340" y="320" width="180" height="100" rx="8" fill="#FAEEDA" stroke="#854F0B" stroke-width="1"/>
<text class="th" x="430" y="345" text-anchor="middle" fill="#633806">Base de datos</text>
<text class="ts" x="430" y="365" text-anchor="middle" fill="#854F0B">PostgreSQL 16</text>
<text class="ts" x="430" y="383" text-anchor="middle" fill="#854F0B">[Docker volume]</text>
<text class="ts" x="430" y="405" text-anchor="middle" fill="#854F0B">Puerto: 5432</text>

<line x1="160" y1="130" x2="226" y2="170" stroke="#5F5E5A" stroke-width="1.5" marker-end="url(#arrow)"/>
<text class="ts" x="190" y="120" text-anchor="middle">HTTPS</text>

<line x1="410" y1="185" x2="448" y2="185" stroke="#5F5E5A" stroke-width="1.5" marker-end="url(#arrow)"/>
<text class="ts" x="430" y="178" text-anchor="middle">REST</text>
<text class="ts" x="430" y="208" text-anchor="middle">/api/v1</text>

<line x1="540" y1="235" x2="450" y2="318" stroke="#5F5E5A" stroke-width="1.5" marker-end="url(#arrow)"/>
<text class="ts" x="520" y="280">SQL/TCP</text>

<rect x="230" y="455" width="400" height="60" rx="6" fill="#F1EFE8" stroke="#5F5E5A" stroke-width="0.5"/>
<text class="th" x="430" y="478" text-anchor="middle" fill="#2C2C2A">Capa de orquestacion</text>
<text class="ts" x="430" y="498" text-anchor="middle" fill="#444441">Docker Compose · 3 servicios · 1 red · 1 volumen</text>
</svg>
